<mxfile host="app.diagrams.net" agent="Mozilla/5.0 (Windows NT 10.0; Win64; x64) AppleWebKit/537.36 (KHTML, like Gecko) Chrome/138.0.0.0 Safari/537.36" version="28.0.6">
  <diagram name="第 1 页" id="NejIG4Rr25vRnkzzJ5Jb">
    <mxGraphModel dx="2837" dy="1073" grid="0" gridSize="10" guides="1" tooltips="1" connect="1" arrows="1" fold="1" page="0" pageScale="1" pageWidth="827" pageHeight="1169" math="0" shadow="0">
      <root>
        <mxCell id="0" />
        <mxCell id="1" parent="0" />
        <mxCell id="kzLVpGqLAc2IESb8B4Pm-66" value="" style="group" vertex="1" connectable="0" parent="1">
          <mxGeometry x="-80" y="686" width="350" height="380" as="geometry" />
        </mxCell>
        <mxCell id="kzLVpGqLAc2IESb8B4Pm-23" value="" style="rounded=0;whiteSpace=wrap;html=1;sketch=1;hachureGap=4;jiggle=2;curveFitting=1;fontFamily=Architects Daughter;fontSource=https%3A%2F%2Ffonts.googleapis.com%2Fcss%3Ffamily%3DArchitects%2BDaughter;" vertex="1" parent="kzLVpGqLAc2IESb8B4Pm-66">
          <mxGeometry width="350" height="380" as="geometry" />
        </mxCell>
        <mxCell id="kzLVpGqLAc2IESb8B4Pm-24" style="edgeStyle=orthogonalEdgeStyle;rounded=0;sketch=1;hachureGap=4;jiggle=2;curveFitting=1;orthogonalLoop=1;jettySize=auto;html=1;exitX=0.5;exitY=1;exitDx=0;exitDy=0;fontFamily=Architects Daughter;fontSource=https%3A%2F%2Ffonts.googleapis.com%2Fcss%3Ffamily%3DArchitects%2BDaughter;" edge="1" parent="kzLVpGqLAc2IESb8B4Pm-66" source="kzLVpGqLAc2IESb8B4Pm-25" target="kzLVpGqLAc2IESb8B4Pm-27">
          <mxGeometry relative="1" as="geometry" />
        </mxCell>
        <mxCell id="kzLVpGqLAc2IESb8B4Pm-25" value="&lt;font style=&quot;font-size: 18px;&quot; face=&quot;Comic Sans MS&quot;&gt;Get PLSQL Object and Cache&lt;/font&gt;" style="rounded=1;whiteSpace=wrap;html=1;sketch=1;hachureGap=4;jiggle=2;curveFitting=1;fontFamily=Architects Daughter;fontSource=https%3A%2F%2Ffonts.googleapis.com%2Fcss%3Ffamily%3DArchitects%2BDaughter;" vertex="1" parent="kzLVpGqLAc2IESb8B4Pm-66">
          <mxGeometry x="85" y="80" width="170" height="60" as="geometry" />
        </mxCell>
        <mxCell id="kzLVpGqLAc2IESb8B4Pm-27" value="&lt;font face=&quot;Comic Sans MS&quot;&gt;&lt;span style=&quot;font-size: 18px;&quot;&gt;PL Executor&lt;/span&gt;&lt;/font&gt;" style="rounded=1;whiteSpace=wrap;html=1;sketch=1;hachureGap=4;jiggle=2;curveFitting=1;fontFamily=Architects Daughter;fontSource=https%3A%2F%2Ffonts.googleapis.com%2Fcss%3Ffamily%3DArchitects%2BDaughter;" vertex="1" parent="kzLVpGqLAc2IESb8B4Pm-66">
          <mxGeometry x="85" y="210" width="170" height="60" as="geometry" />
        </mxCell>
        <mxCell id="kzLVpGqLAc2IESb8B4Pm-29" value="&lt;font style=&quot;font-size: 25px;&quot; face=&quot;Comic Sans MS&quot;&gt;PLSQL&amp;nbsp;ENGINE(EXECUTE)&lt;/font&gt;" style="text;html=1;align=center;verticalAlign=middle;whiteSpace=wrap;rounded=0;fontFamily=Architects Daughter;fontSource=https%3A%2F%2Ffonts.googleapis.com%2Fcss%3Ffamily%3DArchitects%2BDaughter;" vertex="1" parent="kzLVpGqLAc2IESb8B4Pm-66">
          <mxGeometry x="120" y="20" width="100" height="40" as="geometry" />
        </mxCell>
        <mxCell id="kzLVpGqLAc2IESb8B4Pm-41" value="" style="group" vertex="1" connectable="0" parent="1">
          <mxGeometry x="590" y="110" width="340" height="450" as="geometry" />
        </mxCell>
        <mxCell id="kzLVpGqLAc2IESb8B4Pm-12" value="" style="rounded=0;whiteSpace=wrap;html=1;sketch=1;hachureGap=4;jiggle=2;curveFitting=1;fontFamily=Architects Daughter;fontSource=https%3A%2F%2Ffonts.googleapis.com%2Fcss%3Ffamily%3DArchitects%2BDaughter;container=0;" vertex="1" parent="kzLVpGqLAc2IESb8B4Pm-41">
          <mxGeometry width="340" height="450" as="geometry" />
        </mxCell>
        <mxCell id="kzLVpGqLAc2IESb8B4Pm-13" style="edgeStyle=orthogonalEdgeStyle;rounded=0;sketch=1;hachureGap=4;jiggle=2;curveFitting=1;orthogonalLoop=1;jettySize=auto;html=1;exitX=0.5;exitY=1;exitDx=0;exitDy=0;fontFamily=Architects Daughter;fontSource=https%3A%2F%2Ffonts.googleapis.com%2Fcss%3Ffamily%3DArchitects%2BDaughter;" edge="1" parent="kzLVpGqLAc2IESb8B4Pm-41" source="kzLVpGqLAc2IESb8B4Pm-14" target="kzLVpGqLAc2IESb8B4Pm-16">
          <mxGeometry relative="1" as="geometry" />
        </mxCell>
        <mxCell id="kzLVpGqLAc2IESb8B4Pm-14" value="&lt;font style=&quot;font-size: 18px;&quot; face=&quot;Comic Sans MS&quot;&gt;PL Grammar&amp;nbsp;Parser&lt;/font&gt;" style="rounded=1;whiteSpace=wrap;html=1;sketch=1;hachureGap=4;jiggle=2;curveFitting=1;fontFamily=Architects Daughter;fontSource=https%3A%2F%2Ffonts.googleapis.com%2Fcss%3Ffamily%3DArchitects%2BDaughter;container=0;" vertex="1" parent="kzLVpGqLAc2IESb8B4Pm-41">
          <mxGeometry x="80" y="70" width="170" height="60" as="geometry" />
        </mxCell>
        <mxCell id="kzLVpGqLAc2IESb8B4Pm-15" style="edgeStyle=orthogonalEdgeStyle;rounded=0;sketch=1;hachureGap=4;jiggle=2;curveFitting=1;orthogonalLoop=1;jettySize=auto;html=1;exitX=0.5;exitY=1;exitDx=0;exitDy=0;fontFamily=Architects Daughter;fontSource=https%3A%2F%2Ffonts.googleapis.com%2Fcss%3Ffamily%3DArchitects%2BDaughter;entryX=0.5;entryY=0;entryDx=0;entryDy=0;" edge="1" parent="kzLVpGqLAc2IESb8B4Pm-41" source="kzLVpGqLAc2IESb8B4Pm-16" target="kzLVpGqLAc2IESb8B4Pm-39">
          <mxGeometry relative="1" as="geometry" />
        </mxCell>
        <mxCell id="kzLVpGqLAc2IESb8B4Pm-16" value="&lt;font face=&quot;Comic Sans MS&quot;&gt;&lt;span style=&quot;font-size: 18px;&quot;&gt;PL Compile&lt;/span&gt;&lt;/font&gt;" style="rounded=1;whiteSpace=wrap;html=1;sketch=1;hachureGap=4;jiggle=2;curveFitting=1;fontFamily=Architects Daughter;fontSource=https%3A%2F%2Ffonts.googleapis.com%2Fcss%3Ffamily%3DArchitects%2BDaughter;container=0;" vertex="1" parent="kzLVpGqLAc2IESb8B4Pm-41">
          <mxGeometry x="80" y="165" width="170" height="60" as="geometry" />
        </mxCell>
        <mxCell id="kzLVpGqLAc2IESb8B4Pm-18" value="&lt;span style=&quot;font-family: &amp;quot;Comic Sans MS&amp;quot;; font-size: 18px;&quot;&gt;Store&lt;/span&gt;&lt;font face=&quot;Comic Sans MS&quot;&gt;&lt;span style=&quot;font-size: 18px;&quot;&gt;&amp;nbsp;and&amp;nbsp;&lt;/span&gt;&lt;/font&gt;&lt;span style=&quot;font-family: &amp;quot;Comic Sans MS&amp;quot;; font-size: 18px;&quot;&gt;Cache&lt;/span&gt;" style="rounded=1;whiteSpace=wrap;html=1;sketch=1;hachureGap=4;jiggle=2;curveFitting=1;fontFamily=Architects Daughter;fontSource=https%3A%2F%2Ffonts.googleapis.com%2Fcss%3Ffamily%3DArchitects%2BDaughter;container=0;" vertex="1" parent="kzLVpGqLAc2IESb8B4Pm-41">
          <mxGeometry x="80" y="350" width="170" height="60" as="geometry" />
        </mxCell>
        <mxCell id="kzLVpGqLAc2IESb8B4Pm-22" value="&lt;font style=&quot;font-size: 25px;&quot; face=&quot;Comic Sans MS&quot;&gt;PLSQL&amp;nbsp;ENGINE(CREATE)&lt;/font&gt;" style="text;html=1;align=center;verticalAlign=middle;whiteSpace=wrap;rounded=0;fontFamily=Architects Daughter;fontSource=https%3A%2F%2Ffonts.googleapis.com%2Fcss%3Ffamily%3DArchitects%2BDaughter;container=0;" vertex="1" parent="kzLVpGqLAc2IESb8B4Pm-41">
          <mxGeometry x="115" y="10" width="100" height="40" as="geometry" />
        </mxCell>
        <mxCell id="kzLVpGqLAc2IESb8B4Pm-40" style="edgeStyle=orthogonalEdgeStyle;rounded=0;sketch=1;hachureGap=4;jiggle=2;curveFitting=1;orthogonalLoop=1;jettySize=auto;html=1;fontFamily=Architects Daughter;fontSource=https%3A%2F%2Ffonts.googleapis.com%2Fcss%3Ffamily%3DArchitects%2BDaughter;" edge="1" parent="kzLVpGqLAc2IESb8B4Pm-41" source="kzLVpGqLAc2IESb8B4Pm-39" target="kzLVpGqLAc2IESb8B4Pm-18">
          <mxGeometry relative="1" as="geometry" />
        </mxCell>
        <mxCell id="kzLVpGqLAc2IESb8B4Pm-39" value="&lt;font face=&quot;Comic Sans MS&quot;&gt;&lt;span style=&quot;font-size: 18px;&quot;&gt;Compiled Instructions&lt;/span&gt;&lt;/font&gt;" style="rounded=1;whiteSpace=wrap;html=1;sketch=1;hachureGap=4;jiggle=2;curveFitting=1;fontFamily=Architects Daughter;fontSource=https%3A%2F%2Ffonts.googleapis.com%2Fcss%3Ffamily%3DArchitects%2BDaughter;container=0;" vertex="1" parent="kzLVpGqLAc2IESb8B4Pm-41">
          <mxGeometry x="65" y="260" width="200" height="60" as="geometry" />
        </mxCell>
        <mxCell id="kzLVpGqLAc2IESb8B4Pm-37" value="" style="group" vertex="1" connectable="0" parent="1">
          <mxGeometry x="-130" y="75" width="400" height="520" as="geometry" />
        </mxCell>
        <mxCell id="kzLVpGqLAc2IESb8B4Pm-2" value="" style="rounded=0;whiteSpace=wrap;html=1;sketch=1;hachureGap=4;jiggle=2;curveFitting=1;fontFamily=Architects Daughter;fontSource=https%3A%2F%2Ffonts.googleapis.com%2Fcss%3Ffamily%3DArchitects%2BDaughter;" vertex="1" parent="kzLVpGqLAc2IESb8B4Pm-37">
          <mxGeometry width="400" height="520" as="geometry" />
        </mxCell>
        <mxCell id="kzLVpGqLAc2IESb8B4Pm-8" style="edgeStyle=orthogonalEdgeStyle;rounded=0;sketch=1;hachureGap=4;jiggle=2;curveFitting=1;orthogonalLoop=1;jettySize=auto;html=1;exitX=0.5;exitY=1;exitDx=0;exitDy=0;fontFamily=Architects Daughter;fontSource=https%3A%2F%2Ffonts.googleapis.com%2Fcss%3Ffamily%3DArchitects%2BDaughter;" edge="1" parent="kzLVpGqLAc2IESb8B4Pm-37" source="kzLVpGqLAc2IESb8B4Pm-4" target="kzLVpGqLAc2IESb8B4Pm-5">
          <mxGeometry relative="1" as="geometry" />
        </mxCell>
        <mxCell id="kzLVpGqLAc2IESb8B4Pm-4" value="&lt;font style=&quot;font-size: 18px;&quot; face=&quot;Comic Sans MS&quot;&gt;Grammar&amp;nbsp;Parser&lt;/font&gt;" style="rounded=1;whiteSpace=wrap;html=1;sketch=1;hachureGap=4;jiggle=2;curveFitting=1;fontFamily=Architects Daughter;fontSource=https%3A%2F%2Ffonts.googleapis.com%2Fcss%3Ffamily%3DArchitects%2BDaughter;" vertex="1" parent="kzLVpGqLAc2IESb8B4Pm-37">
          <mxGeometry x="140" y="70" width="170" height="60" as="geometry" />
        </mxCell>
        <mxCell id="kzLVpGqLAc2IESb8B4Pm-9" style="edgeStyle=orthogonalEdgeStyle;rounded=0;sketch=1;hachureGap=4;jiggle=2;curveFitting=1;orthogonalLoop=1;jettySize=auto;html=1;exitX=0.5;exitY=1;exitDx=0;exitDy=0;fontFamily=Architects Daughter;fontSource=https%3A%2F%2Ffonts.googleapis.com%2Fcss%3Ffamily%3DArchitects%2BDaughter;" edge="1" parent="kzLVpGqLAc2IESb8B4Pm-37" source="kzLVpGqLAc2IESb8B4Pm-5" target="kzLVpGqLAc2IESb8B4Pm-6">
          <mxGeometry relative="1" as="geometry" />
        </mxCell>
        <mxCell id="kzLVpGqLAc2IESb8B4Pm-5" value="&lt;font face=&quot;Comic Sans MS&quot;&gt;&lt;span style=&quot;font-size: 18px;&quot;&gt;Semantic&amp;nbsp;Analysis&lt;/span&gt;&lt;/font&gt;" style="rounded=1;whiteSpace=wrap;html=1;sketch=1;hachureGap=4;jiggle=2;curveFitting=1;fontFamily=Architects Daughter;fontSource=https%3A%2F%2Ffonts.googleapis.com%2Fcss%3Ffamily%3DArchitects%2BDaughter;" vertex="1" parent="kzLVpGqLAc2IESb8B4Pm-37">
          <mxGeometry x="140" y="160" width="170" height="60" as="geometry" />
        </mxCell>
        <mxCell id="kzLVpGqLAc2IESb8B4Pm-11" style="edgeStyle=orthogonalEdgeStyle;rounded=0;sketch=1;hachureGap=4;jiggle=2;curveFitting=1;orthogonalLoop=1;jettySize=auto;html=1;entryX=0.5;entryY=0;entryDx=0;entryDy=0;fontFamily=Architects Daughter;fontSource=https%3A%2F%2Ffonts.googleapis.com%2Fcss%3Ffamily%3DArchitects%2BDaughter;exitX=0.5;exitY=1;exitDx=0;exitDy=0;" edge="1" parent="kzLVpGqLAc2IESb8B4Pm-37" source="kzLVpGqLAc2IESb8B4Pm-32" target="kzLVpGqLAc2IESb8B4Pm-7">
          <mxGeometry relative="1" as="geometry" />
        </mxCell>
        <mxCell id="kzLVpGqLAc2IESb8B4Pm-33" style="edgeStyle=orthogonalEdgeStyle;rounded=0;sketch=1;hachureGap=4;jiggle=2;curveFitting=1;orthogonalLoop=1;jettySize=auto;html=1;exitX=0.5;exitY=1;exitDx=0;exitDy=0;entryX=0.5;entryY=0;entryDx=0;entryDy=0;fontFamily=Architects Daughter;fontSource=https%3A%2F%2Ffonts.googleapis.com%2Fcss%3Ffamily%3DArchitects%2BDaughter;" edge="1" parent="kzLVpGqLAc2IESb8B4Pm-37" source="kzLVpGqLAc2IESb8B4Pm-6" target="kzLVpGqLAc2IESb8B4Pm-32">
          <mxGeometry relative="1" as="geometry" />
        </mxCell>
        <mxCell id="kzLVpGqLAc2IESb8B4Pm-6" value="&lt;font face=&quot;Comic Sans MS&quot;&gt;&lt;span style=&quot;font-size: 18px;&quot;&gt;Plan&amp;nbsp;Build&lt;/span&gt;&lt;/font&gt;" style="rounded=1;whiteSpace=wrap;html=1;sketch=1;hachureGap=4;jiggle=2;curveFitting=1;fontFamily=Architects Daughter;fontSource=https%3A%2F%2Ffonts.googleapis.com%2Fcss%3Ffamily%3DArchitects%2BDaughter;" vertex="1" parent="kzLVpGqLAc2IESb8B4Pm-37">
          <mxGeometry x="137.5" y="260" width="175" height="60" as="geometry" />
        </mxCell>
        <mxCell id="kzLVpGqLAc2IESb8B4Pm-7" value="&lt;font face=&quot;Comic Sans MS&quot;&gt;&lt;span style=&quot;font-size: 18px;&quot;&gt;Execute&lt;/span&gt;&lt;/font&gt;" style="rounded=1;whiteSpace=wrap;html=1;sketch=1;hachureGap=4;jiggle=2;curveFitting=1;fontFamily=Architects Daughter;fontSource=https%3A%2F%2Ffonts.googleapis.com%2Fcss%3Ffamily%3DArchitects%2BDaughter;" vertex="1" parent="kzLVpGqLAc2IESb8B4Pm-37">
          <mxGeometry x="140" y="444.5" width="170" height="60" as="geometry" />
        </mxCell>
        <mxCell id="kzLVpGqLAc2IESb8B4Pm-21" value="&lt;font style=&quot;font-size: 25px;&quot; face=&quot;Comic Sans MS&quot;&gt;SQL&amp;nbsp;ENGINE&lt;/font&gt;" style="text;html=1;align=center;verticalAlign=middle;whiteSpace=wrap;rounded=0;fontFamily=Architects Daughter;fontSource=https%3A%2F%2Ffonts.googleapis.com%2Fcss%3Ffamily%3DArchitects%2BDaughter;" vertex="1" parent="kzLVpGqLAc2IESb8B4Pm-37">
          <mxGeometry x="40" y="10" width="100" height="40" as="geometry" />
        </mxCell>
        <mxCell id="kzLVpGqLAc2IESb8B4Pm-32" value="&lt;span style=&quot;font-family: &amp;quot;Comic Sans MS&amp;quot;; font-size: 18px;&quot;&gt;Optimization&lt;/span&gt;" style="rounded=1;whiteSpace=wrap;html=1;sketch=1;hachureGap=4;jiggle=2;curveFitting=1;fontFamily=Architects Daughter;fontSource=https%3A%2F%2Ffonts.googleapis.com%2Fcss%3Ffamily%3DArchitects%2BDaughter;" vertex="1" parent="kzLVpGqLAc2IESb8B4Pm-37">
          <mxGeometry x="140" y="350" width="170" height="60" as="geometry" />
        </mxCell>
        <mxCell id="kzLVpGqLAc2IESb8B4Pm-34" style="rounded=0;sketch=1;hachureGap=4;jiggle=2;curveFitting=1;orthogonalLoop=1;jettySize=auto;html=1;exitX=1;exitY=0.5;exitDx=0;exitDy=0;entryX=0;entryY=1;entryDx=0;entryDy=0;fontFamily=Architects Daughter;fontSource=https%3A%2F%2Ffonts.googleapis.com%2Fcss%3Ffamily%3DArchitects%2BDaughter;dashed=1;" edge="1" parent="1" source="kzLVpGqLAc2IESb8B4Pm-6" target="kzLVpGqLAc2IESb8B4Pm-16">
          <mxGeometry relative="1" as="geometry" />
        </mxCell>
        <mxCell id="kzLVpGqLAc2IESb8B4Pm-36" value="&lt;font style=&quot;font-size: 14px;&quot; face=&quot;Comic Sans MS&quot;&gt;Statement Plan&lt;/font&gt;" style="edgeLabel;html=1;align=center;verticalAlign=middle;resizable=0;points=[];sketch=1;hachureGap=4;jiggle=2;curveFitting=1;fontFamily=Architects Daughter;fontSource=https%3A%2F%2Ffonts.googleapis.com%2Fcss%3Ffamily%3DArchitects%2BDaughter;" vertex="1" connectable="0" parent="kzLVpGqLAc2IESb8B4Pm-34">
          <mxGeometry x="-0.0345" y="2" relative="1" as="geometry">
            <mxPoint as="offset" />
          </mxGeometry>
        </mxCell>
        <mxCell id="kzLVpGqLAc2IESb8B4Pm-31" style="rounded=0;sketch=1;hachureGap=4;jiggle=2;curveFitting=1;orthogonalLoop=1;jettySize=auto;html=1;exitX=0;exitY=0;exitDx=0;exitDy=0;entryX=1;entryY=0.25;entryDx=0;entryDy=0;fontFamily=Architects Daughter;fontSource=https%3A%2F%2Ffonts.googleapis.com%2Fcss%3Ffamily%3DArchitects%2BDaughter;dashed=1;" edge="1" parent="1" source="kzLVpGqLAc2IESb8B4Pm-16" target="kzLVpGqLAc2IESb8B4Pm-5">
          <mxGeometry relative="1" as="geometry" />
        </mxCell>
        <mxCell id="kzLVpGqLAc2IESb8B4Pm-35" value="&lt;font face=&quot;Comic Sans MS&quot; style=&quot;font-size: 14px;&quot;&gt;SQL Statement&lt;/font&gt;" style="edgeLabel;html=1;align=center;verticalAlign=middle;resizable=0;points=[];sketch=1;hachureGap=4;jiggle=2;curveFitting=1;fontFamily=Architects Daughter;fontSource=https%3A%2F%2Ffonts.googleapis.com%2Fcss%3Ffamily%3DArchitects%2BDaughter;" vertex="1" connectable="0" parent="kzLVpGqLAc2IESb8B4Pm-31">
          <mxGeometry x="-0.0372" y="1" relative="1" as="geometry">
            <mxPoint as="offset" />
          </mxGeometry>
        </mxCell>
        <mxCell id="kzLVpGqLAc2IESb8B4Pm-30" style="rounded=0;sketch=1;hachureGap=4;jiggle=2;curveFitting=1;orthogonalLoop=1;jettySize=auto;html=1;exitX=0;exitY=1;exitDx=0;exitDy=-15;exitPerimeter=0;entryX=1;entryY=0.5;entryDx=0;entryDy=0;fontFamily=Architects Daughter;fontSource=https%3A%2F%2Ffonts.googleapis.com%2Fcss%3Ffamily%3DArchitects%2BDaughter;dashed=1;dashPattern=8 8;" edge="1" parent="1" source="kzLVpGqLAc2IESb8B4Pm-20" target="kzLVpGqLAc2IESb8B4Pm-25">
          <mxGeometry relative="1" as="geometry" />
        </mxCell>
        <mxCell id="kzLVpGqLAc2IESb8B4Pm-20" value="&lt;font face=&quot;Comic Sans MS&quot; style=&quot;font-size: 18px;&quot;&gt;PL&amp;nbsp;MetaStore&lt;/font&gt;" style="shape=cylinder3;whiteSpace=wrap;html=1;boundedLbl=1;backgroundOutline=1;size=15;sketch=1;hachureGap=4;jiggle=2;curveFitting=1;fontFamily=Architects Daughter;fontSource=https%3A%2F%2Ffonts.googleapis.com%2Fcss%3Ffamily%3DArchitects%2BDaughter;" vertex="1" parent="1">
          <mxGeometry x="690" y="710" width="130" height="100" as="geometry" />
        </mxCell>
        <mxCell id="kzLVpGqLAc2IESb8B4Pm-17" style="rounded=0;sketch=1;hachureGap=4;jiggle=2;curveFitting=1;orthogonalLoop=1;jettySize=auto;html=1;entryX=0.5;entryY=0;entryDx=0;entryDy=0;fontFamily=Architects Daughter;fontSource=https%3A%2F%2Ffonts.googleapis.com%2Fcss%3Ffamily%3DArchitects%2BDaughter;exitX=0.5;exitY=1;exitDx=0;exitDy=0;entryPerimeter=0;" edge="1" parent="1" source="kzLVpGqLAc2IESb8B4Pm-18" target="kzLVpGqLAc2IESb8B4Pm-20">
          <mxGeometry relative="1" as="geometry" />
        </mxCell>
        <mxCell id="kzLVpGqLAc2IESb8B4Pm-49" style="edgeStyle=orthogonalEdgeStyle;rounded=0;sketch=1;hachureGap=4;jiggle=2;curveFitting=1;orthogonalLoop=1;jettySize=auto;html=1;entryX=0;entryY=0.5;entryDx=0;entryDy=0;fontFamily=Architects Daughter;fontSource=https%3A%2F%2Ffonts.googleapis.com%2Fcss%3Ffamily%3DArchitects%2BDaughter;dashed=1;dashPattern=12 12;exitX=0;exitY=0;exitDx=0;exitDy=0;" edge="1" parent="1" source="kzLVpGqLAc2IESb8B4Pm-27" target="kzLVpGqLAc2IESb8B4Pm-7">
          <mxGeometry relative="1" as="geometry">
            <Array as="points">
              <mxPoint x="-160" y="896" />
              <mxPoint x="-160" y="550" />
            </Array>
          </mxGeometry>
        </mxCell>
        <mxCell id="kzLVpGqLAc2IESb8B4Pm-51" value="&lt;font style=&quot;font-size: 14px;&quot; face=&quot;Comic Sans MS&quot;&gt;SQL Cache Plan&lt;/font&gt;" style="edgeLabel;html=1;align=center;verticalAlign=middle;resizable=0;points=[];sketch=1;hachureGap=4;jiggle=2;curveFitting=1;fontFamily=Architects Daughter;fontSource=https%3A%2F%2Ffonts.googleapis.com%2Fcss%3Ffamily%3DArchitects%2BDaughter;" vertex="1" connectable="0" parent="kzLVpGqLAc2IESb8B4Pm-49">
          <mxGeometry x="0.0118" y="2" relative="1" as="geometry">
            <mxPoint as="offset" />
          </mxGeometry>
        </mxCell>
        <mxCell id="kzLVpGqLAc2IESb8B4Pm-55" style="edgeStyle=orthogonalEdgeStyle;rounded=0;sketch=1;hachureGap=4;jiggle=2;curveFitting=1;orthogonalLoop=1;jettySize=auto;html=1;exitX=0;exitY=1;exitDx=0;exitDy=0;entryX=0;entryY=0.5;entryDx=0;entryDy=0;fontFamily=Architects Daughter;fontSource=https%3A%2F%2Ffonts.googleapis.com%2Fcss%3Ffamily%3DArchitects%2BDaughter;dashed=1;dashPattern=12 12;" edge="1" parent="1" source="kzLVpGqLAc2IESb8B4Pm-27" target="kzLVpGqLAc2IESb8B4Pm-6">
          <mxGeometry relative="1" as="geometry">
            <Array as="points">
              <mxPoint x="-220" y="956" />
              <mxPoint x="-220" y="365" />
            </Array>
          </mxGeometry>
        </mxCell>
        <mxCell id="kzLVpGqLAc2IESb8B4Pm-58" value="&lt;font style=&quot;font-size: 14px;&quot; face=&quot;Comic Sans MS&quot;&gt;SQL query&lt;/font&gt;" style="edgeLabel;html=1;align=center;verticalAlign=middle;resizable=0;points=[];sketch=1;hachureGap=4;jiggle=2;curveFitting=1;fontFamily=Architects Daughter;fontSource=https%3A%2F%2Ffonts.googleapis.com%2Fcss%3Ffamily%3DArchitects%2BDaughter;" vertex="1" connectable="0" parent="kzLVpGqLAc2IESb8B4Pm-55">
          <mxGeometry x="0.4151" y="-4" relative="1" as="geometry">
            <mxPoint as="offset" />
          </mxGeometry>
        </mxCell>
        <mxCell id="kzLVpGqLAc2IESb8B4Pm-64" style="edgeStyle=orthogonalEdgeStyle;rounded=0;sketch=1;hachureGap=4;jiggle=2;curveFitting=1;orthogonalLoop=1;jettySize=auto;html=1;exitX=0.5;exitY=1;exitDx=0;exitDy=0;entryX=0.5;entryY=1;entryDx=0;entryDy=0;fontFamily=Architects Daughter;fontSource=https%3A%2F%2Ffonts.googleapis.com%2Fcss%3Ffamily%3DArchitects%2BDaughter;" edge="1" parent="1" source="kzLVpGqLAc2IESb8B4Pm-27" target="kzLVpGqLAc2IESb8B4Pm-44">
          <mxGeometry relative="1" as="geometry">
            <Array as="points">
              <mxPoint x="90" y="1011" />
              <mxPoint x="-366" y="1011" />
            </Array>
          </mxGeometry>
        </mxCell>
        <mxCell id="kzLVpGqLAc2IESb8B4Pm-65" value="&lt;span style=&quot;font-family: &amp;quot;Comic Sans MS&amp;quot;; font-size: 13px;&quot;&gt;Result Return&lt;/span&gt;" style="edgeLabel;html=1;align=center;verticalAlign=middle;resizable=0;points=[];sketch=1;hachureGap=4;jiggle=2;curveFitting=1;fontFamily=Architects Daughter;fontSource=https%3A%2F%2Ffonts.googleapis.com%2Fcss%3Ffamily%3DArchitects%2BDaughter;" vertex="1" connectable="0" parent="kzLVpGqLAc2IESb8B4Pm-64">
          <mxGeometry x="0.508" y="2" relative="1" as="geometry">
            <mxPoint as="offset" />
          </mxGeometry>
        </mxCell>
        <mxCell id="kzLVpGqLAc2IESb8B4Pm-44" value="&lt;font face=&quot;Comic Sans MS&quot;&gt;&lt;span style=&quot;font-size: 18px;&quot;&gt;Result Return&lt;/span&gt;&lt;/font&gt;" style="rounded=1;whiteSpace=wrap;html=1;sketch=1;hachureGap=4;jiggle=2;curveFitting=1;fontFamily=Architects Daughter;fontSource=https%3A%2F%2Ffonts.googleapis.com%2Fcss%3Ffamily%3DArchitects%2BDaughter;" vertex="1" parent="1">
          <mxGeometry x="-451" y="602" width="170" height="60" as="geometry" />
        </mxCell>
        <mxCell id="kzLVpGqLAc2IESb8B4Pm-45" style="rounded=0;sketch=1;hachureGap=4;jiggle=2;curveFitting=1;orthogonalLoop=1;jettySize=auto;html=1;exitX=1;exitY=0.5;exitDx=0;exitDy=0;entryX=0.145;entryY=0;entryDx=0;entryDy=4.35;entryPerimeter=0;fontFamily=Architects Daughter;fontSource=https%3A%2F%2Ffonts.googleapis.com%2Fcss%3Ffamily%3DArchitects%2BDaughter;dashed=1;dashPattern=8 8;startArrow=classic;startFill=1;" edge="1" parent="1" source="kzLVpGqLAc2IESb8B4Pm-5" target="kzLVpGqLAc2IESb8B4Pm-20">
          <mxGeometry relative="1" as="geometry" />
        </mxCell>
        <mxCell id="kzLVpGqLAc2IESb8B4Pm-46" value="&lt;font style=&quot;font-size: 14px;&quot; face=&quot;Comic Sans MS&quot;&gt;PLSQL Objects Resolution&lt;/font&gt;" style="edgeLabel;html=1;align=center;verticalAlign=middle;resizable=0;points=[];sketch=1;hachureGap=4;jiggle=2;curveFitting=1;fontFamily=Architects Daughter;fontSource=https%3A%2F%2Ffonts.googleapis.com%2Fcss%3Ffamily%3DArchitects%2BDaughter;" vertex="1" connectable="0" parent="kzLVpGqLAc2IESb8B4Pm-45">
          <mxGeometry x="-0.0072" y="2" relative="1" as="geometry">
            <mxPoint as="offset" />
          </mxGeometry>
        </mxCell>
        <mxCell id="kzLVpGqLAc2IESb8B4Pm-50" style="edgeStyle=orthogonalEdgeStyle;rounded=0;sketch=1;hachureGap=4;jiggle=2;curveFitting=1;orthogonalLoop=1;jettySize=auto;html=1;entryX=1;entryY=0;entryDx=0;entryDy=0;fontFamily=Architects Daughter;fontSource=https%3A%2F%2Ffonts.googleapis.com%2Fcss%3Ffamily%3DArchitects%2BDaughter;dashed=1;dashPattern=12 12;" edge="1" parent="1" source="kzLVpGqLAc2IESb8B4Pm-7" target="kzLVpGqLAc2IESb8B4Pm-27">
          <mxGeometry relative="1" as="geometry">
            <Array as="points">
              <mxPoint x="310" y="550" />
              <mxPoint x="310" y="896" />
            </Array>
          </mxGeometry>
        </mxCell>
        <mxCell id="kzLVpGqLAc2IESb8B4Pm-54" value="&lt;font face=&quot;Comic Sans MS&quot;&gt;&lt;span style=&quot;font-size: 14px;&quot;&gt;Result&lt;/span&gt;&lt;/font&gt;" style="edgeLabel;html=1;align=center;verticalAlign=middle;resizable=0;points=[];sketch=1;hachureGap=4;jiggle=2;curveFitting=1;fontFamily=Architects Daughter;fontSource=https%3A%2F%2Ffonts.googleapis.com%2Fcss%3Ffamily%3DArchitects%2BDaughter;" vertex="1" connectable="0" parent="kzLVpGqLAc2IESb8B4Pm-50">
          <mxGeometry x="-0.1686" y="-2" relative="1" as="geometry">
            <mxPoint as="offset" />
          </mxGeometry>
        </mxCell>
        <mxCell id="kzLVpGqLAc2IESb8B4Pm-59" style="edgeStyle=orthogonalEdgeStyle;rounded=0;sketch=1;hachureGap=4;jiggle=2;curveFitting=1;orthogonalLoop=1;jettySize=auto;html=1;exitX=1;exitY=0.75;exitDx=0;exitDy=0;entryX=1;entryY=1;entryDx=0;entryDy=0;fontFamily=Architects Daughter;fontSource=https%3A%2F%2Ffonts.googleapis.com%2Fcss%3Ffamily%3DArchitects%2BDaughter;dashed=1;dashPattern=12 12;" edge="1" parent="1" source="kzLVpGqLAc2IESb8B4Pm-6" target="kzLVpGqLAc2IESb8B4Pm-27">
          <mxGeometry relative="1" as="geometry">
            <Array as="points">
              <mxPoint x="340" y="380" />
              <mxPoint x="340" y="956" />
            </Array>
          </mxGeometry>
        </mxCell>
        <mxCell id="kzLVpGqLAc2IESb8B4Pm-60" value="&lt;font style=&quot;font-size: 13px;&quot; face=&quot;Comic Sans MS&quot;&gt;Result&lt;/font&gt;" style="edgeLabel;html=1;align=center;verticalAlign=middle;resizable=0;points=[];sketch=1;hachureGap=4;jiggle=2;curveFitting=1;fontFamily=Architects Daughter;fontSource=https%3A%2F%2Ffonts.googleapis.com%2Fcss%3Ffamily%3DArchitects%2BDaughter;" vertex="1" connectable="0" parent="kzLVpGqLAc2IESb8B4Pm-59">
          <mxGeometry x="0.7152" relative="1" as="geometry">
            <mxPoint as="offset" />
          </mxGeometry>
        </mxCell>
        <mxCell id="kzLVpGqLAc2IESb8B4Pm-62" style="edgeStyle=orthogonalEdgeStyle;rounded=0;sketch=1;hachureGap=4;jiggle=2;curveFitting=1;orthogonalLoop=1;jettySize=auto;html=1;exitX=0.5;exitY=1;exitDx=0;exitDy=0;entryX=1;entryY=0.5;entryDx=0;entryDy=0;fontFamily=Architects Daughter;fontSource=https%3A%2F%2Ffonts.googleapis.com%2Fcss%3Ffamily%3DArchitects%2BDaughter;" edge="1" parent="1" source="kzLVpGqLAc2IESb8B4Pm-7" target="kzLVpGqLAc2IESb8B4Pm-44">
          <mxGeometry relative="1" as="geometry">
            <Array as="points">
              <mxPoint x="95" y="633" />
              <mxPoint x="-282" y="633" />
            </Array>
          </mxGeometry>
        </mxCell>
        <mxCell id="kzLVpGqLAc2IESb8B4Pm-63" value="&lt;font style=&quot;font-size: 13px;&quot; face=&quot;Comic Sans MS&quot;&gt;Result Return&lt;/font&gt;" style="edgeLabel;html=1;align=center;verticalAlign=middle;resizable=0;points=[];sketch=1;hachureGap=4;jiggle=2;curveFitting=1;fontFamily=Architects Daughter;fontSource=https%3A%2F%2Ffonts.googleapis.com%2Fcss%3Ffamily%3DArchitects%2BDaughter;" vertex="1" connectable="0" parent="kzLVpGqLAc2IESb8B4Pm-62">
          <mxGeometry x="-0.1691" y="1" relative="1" as="geometry">
            <mxPoint as="offset" />
          </mxGeometry>
        </mxCell>
      </root>
    </mxGraphModel>
  </diagram>
</mxfile>
